<svg width="200" height="60" viewBox="0 0 200 60" fill="none" xmlns="http://www.w3.org/2000/svg">
  <path d="M35.872 11.424C36.768 11.424 37.536 11.616 38.176 12C38.816 12.368 39.312 12.864 39.664 13.488C40.016 14.112 40.192 14.816 40.192 15.6C40.192 16.384 40.016 17.088 39.664 17.712C39.312 18.336 38.816 18.832 38.176 19.2C37.536 19.568 36.768 19.752 35.872 19.752H33.488V24H31.152V11.424H35.872ZM35.776 17.688C36.464 17.688 36.992 17.512 37.36 17.16C37.728 16.808 37.912 16.288 37.912 15.6C37.912 14.912 37.728 14.392 37.36 14.04C36.992 13.688 36.464 13.512 35.776 13.512H33.488V17.688H35.776Z" fill="#E33B24"/>
  <path d="M42.0903 24V11.424H44.4423V24H42.0903Z" fill="#E33B24"/>
  <path d="M56.5357 14.928C57.2677 15.632 57.6337 16.704 57.6337 18.144V24H55.3617V18.36C55.3617 17.416 55.1517 16.704 54.7317 16.224C54.3117 15.728 53.7037 15.48 52.9077 15.48C52.0957 15.48 51.4597 15.736 50.9997 16.248C50.5397 16.76 50.3097 17.536 50.3097 18.576V24H48.0377V14.88H50.3097V16.032C50.6497 15.584 51.0777 15.24 51.5937 15C52.1257 14.76 52.7137 14.64 53.3577 14.64C54.6337 14.64 55.7877 15.072 56.5357 15.936V14.88H58.8077V24H56.5357V14.928Z" fill="#E33B24"/>
  <path d="M68.5902 24.192C67.5422 24.192 66.6102 23.976 65.7942 23.544C64.9782 23.096 64.3302 22.464 63.8502 21.648C63.3862 20.832 63.1542 19.896 63.1542 18.84C63.1542 17.784 63.3942 16.848 63.8742 16.032C64.3542 15.216 65.0102 14.592 65.8422 14.16C66.6742 13.712 67.6142 13.488 68.6622 13.488C69.7102 13.488 70.6502 13.712 71.4822 14.16C72.3142 14.592 72.9662 15.216 73.4382 16.032C73.9262 16.848 74.1702 17.784 74.1702 18.84C74.1702 19.896 73.9222 20.832 73.4262 21.648C72.9462 22.464 72.2822 23.096 71.4342 23.544C70.6022 23.976 69.6542 24.192 68.5902 24.192ZM68.5902 22.128C69.1702 22.128 69.7022 21.992 70.1862 21.72C70.6702 21.448 71.0502 21.048 71.3262 20.52C71.6022 19.992 71.7402 19.368 71.7402 18.648C71.7402 17.928 71.6022 17.304 71.3262 16.776C71.0662 16.248 70.6982 15.848 70.2222 15.576C69.7462 15.304 69.2222 15.168 68.6502 15.168C68.0622 15.168 67.5302 15.304 67.0542 15.576C66.5942 15.848 66.2262 16.248 65.9502 16.776C65.6742 17.304 65.5342 17.928 65.5342 18.648C65.5342 19.384 65.6702 20.016 65.9422 20.544C66.2302 21.072 66.6102 21.472 67.0822 21.744C67.5542 22 68.0582 22.128 68.5902 22.128Z" fill="#E33B24"/>
  <path d="M80.5037 24.192C79.4557 24.192 78.5237 23.976 77.7077 23.544C76.8917 23.096 76.2437 22.464 75.7637 21.648C75.2997 20.832 75.0677 19.896 75.0677 18.84C75.0677 17.784 75.3077 16.848 75.7877 16.032C76.2677 15.216 76.9237 14.592 77.7557 14.16C78.5877 13.712 79.5277 13.488 80.5757 13.488C81.6237 13.488 82.5637 13.712 83.3957 14.16C84.2277 14.592 84.8797 15.216 85.3517 16.032C85.8397 16.848 86.0837 17.784 86.0837 18.84C86.0837 19.896 85.8357 20.832 85.3397 21.648C84.8597 22.464 84.1957 23.096 83.3477 23.544C82.5157 23.976 81.5677 24.192 80.5037 24.192ZM80.5037 22.128C81.0837 22.128 81.6157 21.992 82.0997 21.72C82.5837 21.448 82.9637 21.048 83.2397 20.52C83.5157 19.992 83.6537 19.368 83.6537 18.648C83.6537 17.928 83.5157 17.304 83.2397 16.776C82.9797 16.248 82.6117 15.848 82.1357 15.576C81.6597 15.304 81.1357 15.168 80.5637 15.168C79.9757 15.168 79.4437 15.304 78.9677 15.576C78.5077 15.848 78.1397 16.248 77.8637 16.776C77.5877 17.304 77.4477 17.928 77.4477 18.648C77.4477 19.384 77.5837 20.016 77.8557 20.544C78.1437 21.072 78.5237 21.472 78.9957 21.744C79.4677 22 79.9717 22.128 80.5037 22.128Z" fill="#E33B24"/>
  <path d="M91.8133 15.744C92.1533 15.072 92.6333 14.544 93.2533 14.16C93.8733 13.776 94.6133 13.584 95.4733 13.584V16.032H94.8133C93.8293 16.032 93.0933 16.288 92.6053 16.8C92.1173 17.296 91.8733 18.104 91.8733 19.224V24H89.6013V13.776H91.8133V15.744Z" fill="#E33B24"/>
  <path d="M96.7613 18.84C96.7613 17.784 96.9933 16.848 97.4573 16.032C97.9373 15.216 98.5853 14.592 99.4013 14.16C100.233 13.712 101.157 13.488 102.173 13.488C103.381 13.488 104.421 13.784 105.293 14.376C106.181 14.952 106.797 15.776 107.137 16.848H104.701C104.493 16.368 104.173 16 103.741 15.744C103.325 15.488 102.813 15.36 102.209 15.36C101.413 15.36 100.773 15.64 100.289 16.2C99.8053 16.76 99.5613 17.64 99.5613 18.84C99.5613 20.04 99.8053 20.92 100.289 21.48C100.773 22.04 101.413 22.32 102.209 22.32C103.417 22.32 104.173 21.784 104.477 20.712H106.913C106.573 21.752 105.973 22.576 105.101 23.184C104.229 23.776 103.141 24.072 101.837 24.072C100.821 24.072 99.9093 23.848 99.0773 23.4C98.2613 22.952 97.6133 22.32 97.1333 21.504C96.8573 21.088 96.6613 20.632 96.5453 20.136C96.4293 19.624 96.3693 19.16 96.3693 18.744L96.7613 18.84Z" fill="#E33B24"/>
  <path d="M111.87 22.824H116.694V24H109.718V22.344L114.35 15.504H109.838V14.328H116.574V15.984L111.87 22.824Z" fill="#E33B24"/>
  <path d="M127.427 13.776H129.699V24H127.427V22.824C127.091 23.256 126.655 23.6 126.119 23.856C125.599 24.096 125.027 24.216 124.403 24.216C123.539 24.216 122.767 24.024 122.087 23.64C121.407 23.24 120.871 22.672 120.479 21.936C120.103 21.184 119.915 20.304 119.915 19.296V13.776H122.187V19.008C122.187 19.952 122.399 20.688 122.823 21.216C123.247 21.728 123.827 21.984 124.563 21.984C125.315 21.984 125.911 21.728 126.351 21.216C126.791 20.688 127.011 19.952 127.011 19.008V13.776H127.427Z" fill="#E33B24"/>
  <path d="M139.979 19.104C139.979 19.44 139.955 19.752 139.907 20.04H133.235C133.299 20.76 133.555 21.32 134.003 21.72C134.451 22.12 135.019 22.32 135.707 22.32C136.683 22.32 137.363 21.936 137.747 21.168H139.811C139.555 22.048 139.035 22.76 138.251 23.304C137.467 23.832 136.499 24.096 135.347 24.096C134.443 24.096 133.635 23.88 132.923 23.448C132.227 23.016 131.675 22.384 131.267 21.552C130.859 20.72 130.655 19.744 130.655 18.624C130.655 17.504 130.851 16.528 131.243 15.696C131.651 14.864 132.203 14.232 132.899 13.8C133.611 13.368 134.435 13.152 135.371 13.152C136.259 13.152 137.051 13.36 137.747 13.776C138.443 14.192 138.979 14.8 139.355 15.6C139.747 16.384 139.939 17.296 139.931 18.336L139.979 19.104ZM137.363 18.072C137.347 17.384 137.115 16.84 136.667 16.44C136.219 16.04 135.651 15.84 134.963 15.84C134.323 15.84 133.779 16.04 133.331 16.44C132.883 16.824 132.619 17.368 132.539 18.072H137.363Z" fill="#E33B24"/>
  <path d="M147.541 24L145.061 19.536H143.909V24H141.637V11.424H146.293C147.205 11.424 147.981 11.6 148.621 11.952C149.261 12.304 149.741 12.776 150.053 13.368C150.365 13.96 150.517 14.608 150.517 15.312C150.517 16.144 150.293 16.888 149.845 17.544C149.413 18.2 148.757 18.664 147.877 18.936L150.565 24H147.541ZM143.885 17.616H146.101C146.805 17.616 147.333 17.44 147.685 17.088C148.037 16.736 148.213 16.248 148.213 15.624C148.213 15.016 148.037 14.536 147.685 14.184C147.333 13.832 146.813 13.656 146.125 13.656H143.885V17.616Z" fill="#E33B24"/>
  <path d="M152.464 24V11.424H154.736V19.248L158.84 14.328H161.648L157.592 19.152L161.864 24H159.008L155.728 20.424L154.736 21.504V24H152.464Z" fill="#E33B24"/>
  <path d="M162.778 22.464C162.778 22.048 162.906 21.712 163.162 21.456C163.434 21.184 163.77 21.048 164.17 21.048C164.57 21.048 164.906 21.184 165.178 21.456C165.45 21.712 165.586 22.048 165.586 22.464C165.586 22.864 165.45 23.2 165.178 23.472C164.906 23.744 164.57 23.88 164.17 23.88C163.77 23.88 163.434 23.744 163.162 23.472C162.906 23.2 162.778 22.864 162.778 22.464Z" fill="#E33B24"/>
  <path d="M124.5 43.5C124.5 48.192 122.812 52.031 119.438 55.016C116.125 57.953 111.802 59.422 106.469 59.422C102.094 59.422 98.3854 58.578 95.3438 56.891C92.3021 55.203 89.9583 52.87 88.3125 49.891C86.6667 46.912 85.8438 43.505 85.8438 39.672C85.8438 34.901 86.875 30.635 88.9375 26.875C91.0625 23.115 94.0521 20.245 97.9062 18.266C101.76 16.286 106.354 15.297 111.688 15.297C116.479 15.297 120.156 16.312 122.719 18.344C125.281 20.375 126.562 23.297 126.562 27.109C126.562 29.578 125.948 31.583 124.719 33.125C123.49 34.667 121.74 35.438 119.469 35.438C117.552 35.438 116.068 34.896 115.016 33.812C113.964 32.729 113.438 31.26 113.438 29.406V27.109H110.531C107.198 27.109 104.688 28.167 103 30.281C101.354 32.395 100.531 35.505 100.531 39.609C100.531 43.672 101.354 46.797 103 48.984C104.688 51.172 107.208 52.266 110.562 52.266C113.896 52.266 116.396 51.12 118.062 48.828C119.729 46.536 120.104 44.115 120.188 43.234H113.656C112.917 43.234 112.3 42.995 111.805 42.516C111.31 42.036 111.062 41.437 111.062 40.719C111.062 39.958 111.312 39.339 111.812 38.859C112.312 38.38 112.927 38.141 113.656 38.141H124.125C124.375 39.724 124.5 41.5 124.5 43.5Z" fill="#E33B24"/>
  <path d="M28.0156 34.852C29.3906 34.852 30.5208 34.432 31.4062 33.594C32.3229 32.755 32.7812 31.625 32.7812 30.203V29.883L30.5625 30.297C30.2083 30.349 29.9792 30.375 29.875 30.375C29.1667 30.375 28.6562 30.13 28.3438 29.641C28.0312 29.151 27.875 28.469 27.875 27.594V16.125H32.7812V11.375H27.875V5.5H22.6875V11.375H19.2969V16.125H22.6875V27.945C22.6875 30.346 23.3125 32.156 24.5625 33.375C25.8438 34.359 27.0104 34.852 28.0156 34.852Z" fill="#E33B24"/>
  <path d="M52.6719 33.773L51.1875 30.406L43.8906 15.875H38.1094L29.7812 34.5H35.7188L41.6719 20.141L46.9531 31.906L45.4062 34.5H54.9219L49.2969 20.141L51.0156 16.125H44.9688L42.9375 20.141L40.2031 25.25L37.4844 20.141L35.4531 16.125H29.5312L31.2188 20.141L25.625 34.5H31.5469L33.0625 31.117L35 27.266L36.5156 30.648L38.8125 36.5H45.8125L47.6094 33.773H52.6719Z" fill="#E33B24"/>
  <path d="M62.0156 34.852C63.3906 34.852 64.5208 34.432 65.4062 33.594C66.3229 32.755 66.7812 31.625 66.7812 30.203V29.883L64.5625 30.297C64.2083 30.349 63.9791 30.375 63.875 30.375C63.1667 30.375 62.6562 30.13 62.3438 29.641C62.0312 29.151 61.875 28.469 61.875 27.594V16.125H66.7812V11.375H61.875V5.5H56.6875V11.375H53.2969V16.125H56.6875V27.945C56.6875 30.346 57.3125 32.156 58.5625 33.375C59.8438 34.359 61.0104 34.852 62.0156 34.852Z" fill="#E33B24"/>
  <path d="M82.4688 11.375C82.4688 9.87499 81.9583 8.62499 80.9375 7.625C79.9479 6.625 78.6875 6.125 77.1562 6.125C75.625 6.125 74.3542 6.62499 73.3438 7.625C72.3646 8.62499 71.875 9.84374 71.875 11.281C71.875 12.802 72.375 14.078 73.375 15.109C74.3958 16.141 75.6667 16.656 77.1875 16.656C78.7292 16.656 80 16.151 81 15.141C82 14.099 82.5 12.85 82.5 11.375H82.4688Z" fill="#E33B24"/>
  <path d="M81.6875 34.5V16.125H72.6562V34.5H81.6875Z" fill="#E33B24"/>
  <path d="M102.969 34.5V20.562C102.969 19.104 102.51 17.927 101.594 17.031C100.677 16.135 99.5 15.688 98.0625 15.688C96.5208 15.688 95.1875 16.172 94.0625 17.141V16.125H85.0625V34.5H94.0625V24.141C94.0625 22.995 94.625 22.422 95.75 22.422C96.9167 22.422 97.5 23.031 97.5 24.25V34.5H102.969Z" fill="#E33B24"/>
  <path d="M122.969 34.5V20.562C122.969 19.104 122.51 17.927 121.594 17.031C120.677 16.135 119.5 15.688 118.062 15.688C116.521 15.688 115.188 16.172 114.062 17.141V16.125H105.062V34.5H114.062V24.141C114.062 22.995 114.625 22.422 115.75 22.422C116.917 22.422 117.5 23.031 117.5 24.25V34.5H122.969Z" fill="#E33B24"/>
  <path d="M142.969 34.5V20.562C142.969 19.104 142.51 17.927 141.594 17.031C140.677 16.135 139.5 15.688 138.062 15.688C136.521 15.688 135.188 16.172 134.062 17.141V16.125H125.062V34.5H134.062V24.141C134.062 22.995 134.625 22.422 135.75 22.422C136.917 22.422 137.5 23.031 137.5 24.25V34.5H142.969Z" fill="#E33B24"/>
  <path d="M162.969 34.5V20.562C162.969 19.104 162.51 17.927 161.594 17.031C160.677 16.135 159.5 15.688 158.062 15.688C156.521 15.688 155.188 16.172 154.062 17.141V16.125H145.062V34.5H154.062V24.141C154.062 22.995 154.625 22.422 155.75 22.422C156.917 22.422 157.5 23.031 157.5 24.25V34.5H162.969Z" fill="#E33B24"/>
  <path d="M182.969 34.5V20.562C182.969 19.104 182.51 17.927 181.594 17.031C180.677 16.135 179.5 15.688 178.062 15.688C176.521 15.688 175.188 16.172 174.062 17.141V16.125H165.062V34.5H174.062V24.141C174.062 22.995 174.625 22.422 175.75 22.422C176.917 22.422 177.5 23.031 177.5 24.25V34.5H182.969Z" fill="#E33B24"/>
  <path d="M195.656 34.828C198.948 34.828 201.042 33.797 202.635 31.734C204.219 29.682 205.01 26.875 205.01 23.312C205.01 21.177 204.667 19.362 203.979 17.865C203.323 16.348 202.396 15.214 201.198 14.464C199.969 13.724 198.5 13.354 196.792 13.354C195.208 13.354 193.844 13.724 192.698 14.464C191.583 15.214 190.719 16.25 190.104 17.57V5.5H181.104V34.5H190.104V31.016C190.792 32.234 191.729 33.161 192.917 33.797C194.135 34.484 195.5 34.828 197.01 34.828H195.656Z" fill="#E33B24"/>
  <path d="M193.396 19.922C193.833 19.266 194.469 18.938 195.302 18.938C196.115 18.938 196.708 19.297 197.083 20.016C197.458 20.714 197.646 21.714 197.646 23.016C197.646 25.203 196.812 26.297 195.146 26.297C194.24 26.297 193.583 25.938 193.177 25.219C192.792 24.5 192.6 23.557 192.6 22.391C192.6 21.224 192.865 20.641 193.396 19.922Z" fill="#E33B24"/>
  <rect x="10" y="60" width="190" height="1" fill="#E33B24"/>
</svg> 