<svg width="24" height="24" viewBox="0 0 24 24" fill="none" xmlns="http://www.w3.org/2000/svg">
  <path d="M19.4401 13C19.2201 13 18.9901 12.93 18.7701 12.88C18.3246 12.7818 17.8868 12.6515 17.4601 12.49C16.9962 12.3212 16.4862 12.33 16.0284 12.5146C15.5706 12.6992 15.1972 13.0466 14.9801 13.49L14.7601 13.94C13.7861 13.3982 12.8911 12.7252 12.1001 11.94C11.3149 11.149 10.6419 10.254 10.1001 9.28L10.5201 9.00001C10.9635 8.78292 11.3109 8.40954 11.4955 7.9517C11.6801 7.49386 11.6889 6.98392 11.5201 6.52001C11.3613 6.09243 11.231 5.6548 11.1301 5.21001C11.0801 4.99001 11.0401 4.76001 11.0101 4.53001C10.8887 3.82563 10.5197 3.18775 9.96972 2.73124C9.41972 2.27474 8.7248 2.02908 8.0101 2.04001H5.0101C4.57913 2.03642 4.15235 2.12399 3.7587 2.29622C3.36506 2.46844 3.01562 2.7208 2.73466 3.03818C2.4537 3.35556 2.24841 3.73115 2.13453 4.13713C2.02065 4.54311 2.00126 4.9687 2.0801 5.38001C2.54004 8.81577 4.07989 12.0035 6.5101 14.46C8.96671 16.8902 12.1544 18.4301 15.5901 18.89C15.7213 18.9102 15.8538 18.9202 15.9864 18.92H16.0101C16.6275 18.9218 17.2254 18.7014 17.7065 18.2901C18.0239 18.0091 18.2762 17.6597 18.4485 17.266C18.6207 16.8724 18.7083 16.4456 18.7047 16.0137V13C18.7058 12.3145 18.4633 11.6506 18.0189 11.1232C17.5746 10.5957 16.9570 10.2422 16.2876 10.1182C16.0113 10.0692 15.7301 10.0292 15.4501 10.0002M16.0001 20.9999C12.1356 20.516 8.57431 18.6843 5.90915 15.8173C3.24399 12.9503 1.65896 9.22888 1.37015 5.35992L1.35815 5.17992C1.24954 4.51811 1.32431 3.83424 1.57395 3.21315C1.82358 2.59207 2.23851 2.05636 2.77553 1.66C3.31254 1.26364 3.95172 1.02342 4.62174 0.969262C5.29177 0.9151 5.96404 1.04996 6.56815 1.35992C7.06395 1.59996 7.4867 1.96716 7.79374 2.4244C8.10078 2.88164 8.27796 3.41 8.30815 3.95992C8.34815 4.39992 8.41815 4.82992 8.51815 5.25992C8.6382 5.84016 8.8082 6.40999 9.02815 6.95992M9.02815 6.95992C9.2226 7.46953 9.2226 8.03031 9.02815 8.53992C8.84369 9.04954 8.48188 9.47991 8.00815 9.75992L7.07815 10.3599C7.02815 10.3999 6.97815 10.3999 6.94815 10.4499C7.69233 11.9223 8.62791 13.2742 9.72815 14.4599C10.915 15.5596 12.2668 16.4948 13.7391 17.2386C13.7891 17.2086 13.7891 17.1586 13.8291 17.1086L14.4291 16.1786C14.7092 15.7042 15.1403 15.3418 15.6508 15.1574C16.1612 14.973 16.7229 14.9741 17.2331 15.1606C17.7825 15.3806 18.3523 15.5506 18.9401 15.6699C19.372 15.7687 19.7836 15.9395 20.1593 16.1742C20.5349 16.409 20.8684 16.7038 21.1443 17.0453C21.4201 17.3869 21.6339 17.7699 21.7752 18.1788C21.9164 18.5878 21.9828 19.0163 21.9714 19.447C21.9475 20.1167 21.73 20.7652 21.3436 21.3116C20.9573 21.858 20.4161 22.2783 19.7901 22.5199" stroke="#0E402A" stroke-width="2" stroke-linecap="round" stroke-linejoin="round"/>
</svg> 